<svg width="36" height="36" viewBox="0 0 36 36" fill="none" xmlns="http://www.w3.org/2000/svg">
<g clip-path="url(#clip0_1527_5104)">
<path d="M36 18C36 8.05888 27.9411 0 18 0C8.05888 0 0 8.05888 0 18C0 27.9411 8.05888 36 18 36C27.9411 36 36 27.9411 36 18Z" fill="#3262DE"/>
<path fill-rule="evenodd" clip-rule="evenodd" d="M8.1001 10.2795C8.1001 9.28538 8.90599 8.47949 9.9001 8.47949H19.7705C19.9362 8.47949 20.0705 8.6138 20.0705 8.77949C20.0705 8.94518 19.9362 9.07949 19.7705 9.07949H9.9001C9.23736 9.07949 8.7001 9.61675 8.7001 10.2795V25.9203C8.7001 26.583 9.23736 27.1203 9.9001 27.1203H25.5409C26.2036 27.1203 26.7409 26.583 26.7409 25.9203V15.8999C26.7409 15.7342 26.8752 15.5999 27.0409 15.5999C27.2066 15.5999 27.3409 15.7342 27.3409 15.8999V25.9203C27.3409 26.9144 26.535 27.7203 25.5409 27.7203H9.9001C8.90599 27.7203 8.1001 26.9144 8.1001 25.9203V10.2795Z" fill="white"/>
<path d="M15.0874 22C15.0874 22 15.0496 22.0797 14.9836 22.21C14.6808 22.8397 13.8795 24.6469 14.8449 24.2776C15.3078 24.1004 15.6585 23.6213 15.7941 23.4125C15.8276 23.3512 15.8553 23.3129 15.8553 23.3129C15.8553 23.3129 15.834 23.351 15.7941 23.4125C15.6805 23.62 15.5003 24.0914 16.1065 24.2286C16.5293 24.3242 16.7847 24.0584 16.9304 23.7926C16.8626 23.5597 17.0996 23.3371 17.0996 23.3371C17.0996 23.3371 17.0553 23.5648 16.9304 23.7926C16.7847 24.0584 16.5293 24.3242 16.1065 24.2286C15.5003 24.0914 15.6805 23.62 15.7941 23.4125C15.6585 23.6213 15.3078 24.1004 14.8449 24.2776C13.8795 24.6469 14.6808 22.8397 14.9836 22.21C15.0461 22.0798 15.0874 22 15.0874 22Z" fill="white"/>
<path d="M10.491 23.9788C10.3261 23.995 10.2056 24.1418 10.2217 24.3067C10.2379 24.4716 10.3847 24.5921 10.5496 24.5759L10.491 23.9788ZM13.3091 22.6161L13.5575 22.7842C13.6487 22.6495 13.6159 22.4666 13.4835 22.372C13.3511 22.2774 13.1675 22.3055 13.0695 22.4354L13.3091 22.6161ZM15.0874 21.9998L15.3584 22.1284C15.4286 21.9805 15.3673 21.8037 15.2206 21.731C15.0739 21.6583 14.896 21.7166 14.8209 21.8621L15.0874 21.9998ZM15.8553 23.3127L16.1171 23.4592C16.1947 23.3205 16.1506 23.1454 16.0167 23.0599C15.8827 22.9744 15.7054 23.0082 15.6122 23.1369L15.8553 23.3127ZM17.0996 23.3369L17.3941 23.3942C17.419 23.2665 17.3586 23.1372 17.2446 23.0743C17.1307 23.0114 16.9891 23.0291 16.8943 23.1183L17.0996 23.3369ZM19.8864 24.5903C20.0518 24.5816 20.1789 24.4403 20.1701 24.2749C20.1614 24.1094 20.0202 23.9824 19.8547 23.9911L19.8864 24.5903ZM10.5203 24.2774C10.5496 24.5759 10.5496 24.5759 10.5496 24.5759C10.5497 24.5759 10.5498 24.5759 10.5499 24.5759C10.55 24.5759 10.5501 24.5759 10.5502 24.5759C10.5505 24.5758 10.5508 24.5758 10.5512 24.5758C10.5519 24.5757 10.553 24.5756 10.5543 24.5754C10.5569 24.5752 10.5605 24.5748 10.5651 24.5743C10.5743 24.5733 10.5874 24.5718 10.6041 24.5698C10.6374 24.5658 10.6848 24.5597 10.7433 24.5511C10.8599 24.534 11.0216 24.5068 11.2023 24.4663C11.553 24.3876 12.0169 24.2502 12.3511 24.0128L12.0037 23.5237C11.7721 23.6882 11.4074 23.8054 11.071 23.8808C10.9082 23.9173 10.7617 23.942 10.6561 23.9575C10.6034 23.9653 10.5611 23.9707 10.5325 23.9741C10.5182 23.9758 10.5074 23.977 10.5003 23.9778C10.4968 23.9782 10.4942 23.9785 10.4926 23.9786C10.4918 23.9787 10.4913 23.9788 10.491 23.9788C10.491 23.9788 10.491 23.9788 10.5203 24.2774ZM12.3511 24.0128C12.6617 23.7922 12.9623 23.4843 13.1793 23.2412C13.2893 23.1179 13.3809 23.0077 13.4452 22.9281C13.4774 22.8883 13.5028 22.856 13.5204 22.8334C13.5292 22.8221 13.536 22.8132 13.5408 22.807C13.5431 22.8039 13.545 22.8015 13.5463 22.7997C13.5469 22.7989 13.5475 22.7982 13.5478 22.7977C13.548 22.7974 13.5482 22.7972 13.5483 22.7971C13.5484 22.797 13.5484 22.7969 13.5485 22.7969C13.5485 22.7968 13.5486 22.7967 13.3091 22.6161C13.0695 22.4354 13.0695 22.4354 13.0696 22.4354C13.0696 22.4354 13.0695 22.4355 13.0694 22.4356C13.0693 22.4358 13.069 22.4362 13.0685 22.4368C13.0677 22.4379 13.0663 22.4397 13.0644 22.4422C13.0605 22.4472 13.0547 22.4548 13.0469 22.4648C13.0313 22.4849 13.0081 22.5143 12.9784 22.5511C12.9189 22.6247 12.8337 22.7272 12.7316 22.8417C12.5241 23.0742 12.2589 23.3423 12.0037 23.5237L12.3511 24.0128ZM13.3091 22.6161C13.0606 22.4479 13.0606 22.448 13.0605 22.4481L13.0604 22.4482C13.0603 22.4484 13.0602 22.4485 13.0601 22.4486C13.0599 22.4489 13.0597 22.4493 13.0594 22.4497C13.0589 22.4505 13.0581 22.4516 13.0572 22.4529C13.0555 22.4556 13.0531 22.4592 13.0501 22.4638C13.0441 22.473 13.0358 22.4858 13.0257 22.5021C13.0053 22.5346 12.9773 22.5809 12.9452 22.6379C12.8813 22.7514 12.7992 22.911 12.729 23.0928C12.6595 23.2729 12.5972 23.4861 12.5812 23.7043C12.5653 23.9227 12.5947 24.1666 12.7321 24.3841L13.2393 24.0634C13.1921 23.9888 13.1696 23.8857 13.1796 23.748C13.1897 23.6099 13.2313 23.4577 13.2888 23.3089C13.3456 23.1618 13.4135 23.0291 13.468 22.9323C13.495 22.8843 13.5183 22.846 13.5344 22.8203C13.5424 22.8074 13.5486 22.7978 13.5526 22.7916C13.5546 22.7885 13.5561 22.7864 13.5569 22.7851C13.5573 22.7845 13.5576 22.7841 13.5577 22.784C13.5577 22.784 13.5577 22.784 13.5576 22.784V22.7841C13.5575 22.7842 13.5575 22.7842 13.3091 22.6161ZM12.7321 24.3841C12.8253 24.5314 12.9594 24.6495 13.1398 24.6875C13.3133 24.724 13.4743 24.6744 13.6015 24.6068C13.8467 24.4765 14.081 24.2184 14.2806 23.956C14.6911 23.4162 15.0751 22.6929 15.2512 22.3453L14.7159 22.0742C14.5417 22.4181 14.1782 23.0995 13.8031 23.5927C13.6098 23.8468 13.4418 24.0122 13.32 24.0769C13.2637 24.1069 13.25 24.0976 13.2633 24.1004C13.2836 24.1046 13.2718 24.1149 13.2393 24.0634L12.7321 24.3841ZM15.2512 22.3453C15.2849 22.2788 15.3115 22.225 15.3297 22.1877C15.3389 22.169 15.3459 22.1544 15.3507 22.1444C15.3532 22.1394 15.355 22.1355 15.3563 22.1328C15.3569 22.1315 15.3574 22.1305 15.3578 22.1297C15.358 22.1294 15.3581 22.1291 15.3582 22.1288C15.3583 22.1287 15.3583 22.1286 15.3583 22.1286C15.3583 22.1285 15.3584 22.1285 15.3584 22.1285C15.3584 22.1284 15.3584 22.1284 15.3584 22.1284C15.3584 22.1284 15.3584 22.1284 15.0874 21.9998C14.8164 21.8712 14.8164 21.8712 14.8164 21.8712C14.8164 21.8711 14.8164 21.8711 14.8164 21.8711V21.8712C14.8164 21.8713 14.8162 21.8715 14.8161 21.8717C14.8158 21.8722 14.8155 21.873 14.8149 21.8741C14.8139 21.8763 14.8123 21.8797 14.8101 21.8841C14.8058 21.8931 14.7993 21.9066 14.7907 21.9241C14.7736 21.9592 14.7482 22.0104 14.7159 22.0742L15.2512 22.3453ZM15.0874 21.9998C14.8209 21.8621 14.8209 21.8621 14.8209 21.8621C14.8209 21.8621 14.8209 21.8621 14.8208 21.8621C14.8207 21.8622 14.8207 21.8624 14.8206 21.8625C14.8205 21.8627 14.8204 21.863 14.8202 21.8634C14.8198 21.8641 14.8193 21.8652 14.8186 21.8665C14.8172 21.8693 14.8152 21.8732 14.8126 21.8782C14.8075 21.8883 14.8 21.9029 14.7907 21.9217C14.7719 21.9592 14.7452 22.0131 14.7132 22.0798L15.2539 22.3397C15.2844 22.2763 15.3097 22.2252 15.3272 22.1903C15.3359 22.1728 15.3427 22.1594 15.3473 22.1504C15.3496 22.1459 15.3513 22.1426 15.3524 22.1404C15.353 22.1393 15.3534 22.1386 15.3536 22.1381C15.3537 22.1378 15.3538 22.1377 15.3539 22.1376C15.3539 22.1375 15.3539 22.1375 15.3539 22.1375C15.3539 22.1375 15.3539 22.1375 15.0874 21.9998ZM14.7132 22.0798C14.5618 22.3947 14.2729 23.0292 14.1471 23.5475C14.1152 23.6789 14.0915 23.8119 14.0851 23.936C14.0789 24.0552 14.0869 24.1938 14.142 24.3193C14.2041 24.4607 14.3232 24.5754 14.4971 24.6135C14.6495 24.6468 14.8075 24.6129 14.9521 24.5575L14.7377 23.9972C14.6409 24.0342 14.6128 24.0246 14.6254 24.0273C14.6595 24.0348 14.6852 24.064 14.6914 24.0781C14.6919 24.0792 14.6885 24.0718 14.686 24.0513C14.6835 24.0313 14.6824 24.0035 14.6843 23.9671C14.6881 23.8933 14.7033 23.7997 14.7302 23.689C14.8395 23.2385 15.1026 22.6546 15.2539 22.3397L14.7132 22.0798ZM14.9521 24.5575C15.2405 24.4472 15.4797 24.2495 15.6579 24.0652C15.8382 23.8788 15.9715 23.6899 16.0457 23.5756L15.5425 23.2489C15.4811 23.3435 15.3712 23.4985 15.2266 23.6481C15.0798 23.7999 14.9121 23.9304 14.7377 23.9972L14.9521 24.5575ZM16.0457 23.5756C16.0678 23.5416 16.085 23.5137 16.097 23.4937C16.103 23.4837 16.1077 23.4757 16.111 23.4698C16.1127 23.4669 16.1141 23.4646 16.1151 23.4628C16.1156 23.4619 16.116 23.4611 16.1164 23.4605C16.1165 23.4602 16.1167 23.46 16.1168 23.4597C16.1169 23.4596 16.1169 23.4595 16.117 23.4594C16.117 23.4594 16.117 23.4593 16.1171 23.4593C16.1171 23.4593 16.1171 23.4593 16.1171 23.4592C16.1171 23.4592 16.1171 23.4592 15.8553 23.3127C15.5935 23.1663 15.5935 23.1663 15.5935 23.1663L15.5936 23.1661C15.5937 23.166 15.5937 23.1658 15.5937 23.1658C15.5937 23.1658 15.5937 23.166 15.5935 23.1663C15.5932 23.1668 15.5926 23.1678 15.5917 23.1694C15.5898 23.1727 15.5867 23.178 15.5824 23.1852C15.5737 23.1996 15.5603 23.2214 15.5425 23.2489L16.0457 23.5756ZM15.8553 23.3127C15.6122 23.1369 15.6122 23.1369 15.6122 23.1369C15.6121 23.1369 15.6121 23.1371 15.6121 23.1371C15.612 23.1372 15.612 23.1372 15.6119 23.1373C15.6119 23.1374 15.6117 23.1376 15.6116 23.1377C15.6114 23.138 15.6112 23.1384 15.6109 23.1388C15.6103 23.1396 15.6097 23.1405 15.6089 23.1416C15.6073 23.1438 15.6054 23.1466 15.6031 23.1499C15.5985 23.1566 15.5924 23.1657 15.5852 23.1769C15.5708 23.1992 15.5517 23.2303 15.5309 23.2683L16.0573 23.5562C16.07 23.533 16.0815 23.5143 16.0894 23.5022C16.0933 23.4961 16.0962 23.4918 16.0978 23.4894C16.0986 23.4883 16.0991 23.4876 16.0992 23.4874C16.0992 23.4873 16.0992 23.4874 16.0991 23.4876C16.099 23.4877 16.0989 23.4878 16.0988 23.488C16.0987 23.4881 16.0987 23.4882 16.0986 23.4883L16.0985 23.4884L16.0984 23.4885C16.0984 23.4886 16.0984 23.4886 15.8553 23.3127ZM15.5309 23.2683C15.4686 23.3821 15.3556 23.6207 15.3819 23.8773C15.3963 24.017 15.4522 24.1624 15.5736 24.2841C15.6915 24.4022 15.8512 24.4782 16.0403 24.521L16.1727 23.9358C16.0587 23.91 16.0136 23.8756 15.9983 23.8603C15.9866 23.8485 15.981 23.8373 15.9788 23.8161C15.976 23.7891 15.9802 23.749 15.9963 23.6968C16.012 23.6461 16.0351 23.5967 16.0573 23.5562L15.5309 23.2683ZM16.0403 24.521C16.3321 24.587 16.5843 24.5285 16.7859 24.3974C16.9778 24.2727 17.1076 24.0933 17.1935 23.9367L16.6674 23.6482C16.6075 23.7573 16.5368 23.8437 16.4588 23.8944C16.3906 23.9388 16.3037 23.9654 16.1727 23.9358L16.0403 24.521ZM17.1935 23.9367C17.2683 23.8002 17.3176 23.6666 17.3482 23.5688C17.3637 23.5193 17.3747 23.4776 17.3821 23.4475C17.3858 23.4324 17.3886 23.4201 17.3906 23.4111C17.3916 23.4066 17.3923 23.4029 17.3929 23.4001C17.3932 23.3987 17.3935 23.3975 17.3937 23.3965C17.3938 23.396 17.3938 23.3956 17.3939 23.3952C17.3939 23.395 17.394 23.3948 17.394 23.3947C17.394 23.3946 17.394 23.3945 17.3941 23.3944C17.3941 23.3944 17.3941 23.3942 17.0996 23.3369C16.8051 23.2796 16.8052 23.2796 16.8052 23.2795C16.8052 23.2794 16.8052 23.2793 16.8052 23.2793C16.8052 23.2792 16.8053 23.2791 16.8053 23.279C16.8053 23.2789 16.8053 23.2788 16.8053 23.2787C16.8053 23.2786 16.8053 23.2787 16.8053 23.279C16.8051 23.2796 16.8048 23.2811 16.8044 23.2832C16.8034 23.2876 16.8018 23.2948 16.7994 23.3047C16.7945 23.3244 16.7867 23.3538 16.7755 23.3898C16.7527 23.4628 16.7174 23.5569 16.6674 23.6482L17.1935 23.9367ZM17.0996 23.3369C16.8943 23.1183 16.8942 23.1183 16.8941 23.1184L16.894 23.1185C16.8939 23.1186 16.8938 23.1187 16.8936 23.1188C16.8934 23.119 16.8932 23.1193 16.8929 23.1195C16.8924 23.12 16.8919 23.1205 16.8913 23.1211C16.89 23.1223 16.8886 23.1237 16.8869 23.1254C16.8835 23.1287 16.8793 23.1329 16.8743 23.138C16.8644 23.1482 16.8514 23.1621 16.8366 23.1793C16.8074 23.2131 16.7687 23.2622 16.7322 23.3232C16.6646 23.436 16.574 23.6413 16.6424 23.8763L17.2185 23.7086C17.2185 23.7085 17.2182 23.7079 17.2182 23.7059C17.2182 23.7036 17.2185 23.6991 17.2202 23.692C17.2238 23.6767 17.2323 23.6559 17.247 23.6315C17.2612 23.6077 17.2776 23.5866 17.2907 23.5714C17.2971 23.5641 17.3021 23.5588 17.3048 23.5559C17.3062 23.5545 17.307 23.5537 17.3071 23.5536C17.3071 23.5536 17.307 23.5537 17.3066 23.5541C17.3065 23.5542 17.3062 23.5545 17.306 23.5547C17.3058 23.5548 17.3057 23.555 17.3055 23.5551C17.3054 23.5552 17.3053 23.5553 17.3053 23.5554C17.3052 23.5554 17.3051 23.5555 17.3051 23.5555C17.3051 23.5556 17.305 23.5556 17.0996 23.3369ZM16.6424 23.8763C16.7343 24.1921 17.0532 24.3838 17.5186 24.4912C18.001 24.6026 18.7472 24.6505 19.8864 24.5903L19.8547 23.9911C18.7347 24.0503 18.0544 23.9991 17.6535 23.9066C17.4536 23.8604 17.3394 23.8076 17.2775 23.7655C17.2477 23.7452 17.2327 23.7293 17.2257 23.7204C17.2222 23.7159 17.2204 23.7128 17.2196 23.7112C17.2188 23.7096 17.2185 23.7087 17.2185 23.7086L16.6424 23.8763Z" fill="white"/>
<path fill-rule="evenodd" clip-rule="evenodd" d="M20.4077 24.2907C20.4077 24.125 20.542 23.9907 20.7077 23.9907H20.7577C20.9234 23.9907 21.0577 24.125 21.0577 24.2907C21.0577 24.4564 20.9234 24.5907 20.7577 24.5907H20.7077C20.542 24.5907 20.4077 24.4564 20.4077 24.2907Z" fill="white"/>
<path d="M14.4661 13.5996L22.3152 21.4487C22.5885 21.722 22.5885 22.1652 22.3152 22.4386L22.0323 22.7215C21.759 22.9948 21.3157 22.9948 21.0424 22.7215L13.1933 14.8724C12.92 14.599 12.92 14.1558 13.1933 13.8825L13.4762 13.5996C13.7495 13.3262 14.1928 13.3262 14.4661 13.5996Z" fill="white"/>
<path fill-rule="evenodd" clip-rule="evenodd" d="M14.2892 13.7763C14.1136 13.6006 13.8286 13.6006 13.653 13.7763L13.37 14.0593C13.1944 14.2349 13.1943 14.5198 13.37 14.6956C13.37 14.6956 13.37 14.6956 13.37 14.6956L21.2191 22.5447C21.3948 22.7204 21.6798 22.7204 21.8555 22.5447L22.1383 22.2618C22.1383 22.2618 22.1384 22.2618 22.1383 22.2618C22.314 22.086 22.314 21.8011 22.1384 21.6255L14.2892 13.7763ZM14.6429 13.4228C14.2719 13.0518 13.6703 13.0518 13.2994 13.4228C13.2994 13.4228 13.2994 13.4228 13.2994 13.4228L13.0165 13.7057M13.0165 13.7057C12.6455 14.0767 12.6456 14.6781 13.0164 15.0491L20.8656 22.8983C21.2365 23.2692 21.8381 23.2692 22.209 22.8983L22.4919 22.6154C22.8628 22.2444 22.8629 21.6429 22.4919 21.2719L14.6429 13.4228" fill="white"/>
<path fill-rule="evenodd" clip-rule="evenodd" d="M25.5648 12.4893L25.9763 12.7732C26.5214 13.1492 27.2747 13.094 27.7595 12.6091L29.0323 11.3364C29.1885 11.1801 29.1885 10.9269 29.0323 10.7707L25.0725 6.81091C24.9163 6.6547 24.663 6.6547 24.5068 6.81091L23.234 8.0837C22.7381 8.57959 22.6918 9.35599 23.0961 9.90349L23.4029 10.3189L21.3953 12.3265L23.5615 14.4926L25.5648 12.4893ZM24.224 16.0034L24.2238 16.0035L19.769 11.5488L19.7692 11.5486L19.5552 11.3345C19.1889 10.9682 18.608 10.9464 18.2166 11.2691L24.4634 17.5159C24.7861 17.1245 24.7643 16.5436 24.398 16.1773L24.224 16.0034ZM17.0115 10.9121L17.5771 11.4778L17.5769 11.478L24.3651 18.2662L24.3653 18.266L24.8605 18.7611C25.0168 18.9174 25.0168 19.1706 24.8605 19.3268L24.1534 20.0339C23.9972 20.1901 23.744 20.1901 23.5877 20.0339L15.7387 12.1849C15.5825 12.0287 15.5825 11.7754 15.7387 11.6192L16.4458 10.9121C16.602 10.7559 16.8553 10.7559 17.0115 10.9121ZM25.6356 13.2671C26.4148 13.8046 27.4905 13.7267 28.1838 13.0334L29.4566 11.7606C29.8471 11.3701 29.8471 10.7369 29.4566 10.3464L25.4968 6.38665C25.1062 5.99612 24.4731 5.99612 24.0826 6.38665L22.8098 7.65944C22.1008 8.36839 22.0354 9.47716 22.6134 10.2599L20.9713 11.902L19.9795 10.9102C19.3788 10.3095 18.4187 10.2873 17.7914 10.8434L17.4358 10.4878C17.0452 10.0973 16.4121 10.0973 16.0215 10.4878L15.3144 11.1949C14.9239 11.5855 14.9239 12.2186 15.3144 12.6091L23.1635 20.4582C23.554 20.8487 24.1872 20.8487 24.5777 20.4582L25.2848 19.7511C25.6753 19.3606 25.6753 18.7274 25.2848 18.3369L24.8891 17.9412C25.4452 17.3138 25.423 16.3537 24.8223 15.753L23.986 14.9167L25.6356 13.2671Z" fill="white"/>
</g>
<defs>
<clipPath id="clip0_1527_5104">
<rect width="36" height="36" fill="white"/>
</clipPath>
</defs>
</svg>
